<svg xmlns="http://www.w3.org/2000/svg" xmlns:xlink="http://www.w3.org/1999/xlink" width="200" zoomAndPan="magnify" viewBox="0 0 150 37.5" height="50" preserveAspectRatio="xMidYMid meet" version="1.0"><path fill="#282828" d="M 38.050781 24.753906 L 38.050781 14.910156 L 34.703125 14.910156 L 34.703125 13.175781 L 43.449219 13.175781 L 43.449219 14.910156 L 40.105469 14.910156 L 40.105469 24.753906 Z M 38.050781 24.753906 " fill-opacity="1" fill-rule="nonzero"/><path fill="#282828" d="M 44.425781 24.753906 L 44.425781 16.0625 L 46.109375 16.0625 L 46.25 17.601562 L 46.320312 17.601562 C 46.625 17.03125 47 16.601562 47.433594 16.300781 C 47.871094 16 48.320312 15.847656 48.78125 15.847656 C 49.191406 15.847656 49.523438 15.90625 49.769531 16.027344 L 49.417969 17.796875 C 49.261719 17.75 49.121094 17.714844 48.992188 17.691406 C 48.859375 17.667969 48.703125 17.65625 48.511719 17.65625 C 48.171875 17.65625 47.808594 17.789062 47.433594 18.054688 C 47.054688 18.320312 46.730469 18.78125 46.457031 19.441406 L 46.457031 24.753906 L 44.421875 24.753906 Z M 44.425781 24.753906 " fill-opacity="1" fill-rule="nonzero"/><path fill="#282828" d="M 52.054688 14.539062 C 51.6875 14.539062 51.386719 14.433594 51.152344 14.21875 C 50.914062 14.007812 50.796875 13.730469 50.796875 13.390625 C 50.796875 13.046875 50.914062 12.765625 51.152344 12.546875 C 51.386719 12.332031 51.6875 12.21875 52.054688 12.21875 C 52.417969 12.21875 52.71875 12.328125 52.957031 12.546875 C 53.191406 12.765625 53.3125 13.046875 53.3125 13.390625 C 53.3125 13.730469 53.191406 14.007812 52.957031 14.21875 C 52.71875 14.433594 52.417969 14.539062 52.054688 14.539062 Z M 51.027344 24.753906 L 51.027344 16.0625 L 53.0625 16.0625 L 53.0625 24.753906 Z M 51.027344 24.753906 " fill-opacity="1" fill-rule="nonzero"/><path fill="#282828" d="M 59.292969 24.964844 C 58.703125 24.964844 58.152344 24.863281 57.640625 24.664062 C 57.125 24.464844 56.679688 24.167969 56.300781 23.777344 C 55.925781 23.386719 55.628906 22.910156 55.417969 22.34375 C 55.203125 21.777344 55.097656 21.136719 55.097656 20.414062 C 55.097656 19.695312 55.214844 19.050781 55.453125 18.484375 C 55.691406 17.917969 56.007812 17.441406 56.40625 17.050781 C 56.808594 16.664062 57.269531 16.363281 57.796875 16.160156 C 58.324219 15.953125 58.875 15.847656 59.453125 15.847656 C 60.03125 15.847656 60.503906 15.941406 60.914062 16.132812 C 61.320312 16.324219 61.683594 16.550781 62 16.824219 L 61.007812 18.152344 C 60.773438 17.949219 60.539062 17.792969 60.3125 17.683594 C 60.082031 17.570312 59.828125 17.515625 59.558594 17.515625 C 58.851562 17.515625 58.277344 17.777344 57.839844 18.300781 C 57.40625 18.828125 57.1875 19.53125 57.1875 20.417969 C 57.1875 21.304688 57.402344 21.992188 57.832031 22.515625 C 58.265625 23.039062 58.824219 23.300781 59.507812 23.300781 C 59.847656 23.300781 60.171875 23.226562 60.472656 23.078125 C 60.773438 22.933594 61.046875 22.757812 61.296875 22.558594 L 62.125 23.902344 C 61.714844 24.257812 61.261719 24.519531 60.773438 24.699219 C 60.285156 24.875 59.789062 24.964844 59.292969 24.964844 Z M 59.292969 24.964844 " fill-opacity="1" fill-rule="nonzero"/><path fill="#282828" d="M 66.980469 24.964844 C 66.4375 24.964844 65.917969 24.863281 65.421875 24.664062 C 64.925781 24.464844 64.484375 24.167969 64.101562 23.777344 C 63.71875 23.386719 63.410156 22.910156 63.1875 22.34375 C 62.964844 21.777344 62.851562 21.136719 62.851562 20.414062 C 62.851562 19.695312 62.964844 19.050781 63.1875 18.484375 C 63.410156 17.917969 63.714844 17.441406 64.101562 17.050781 C 64.484375 16.664062 64.925781 16.363281 65.421875 16.160156 C 65.917969 15.953125 66.4375 15.847656 66.980469 15.847656 C 67.523438 15.847656 68.046875 15.953125 68.546875 16.160156 C 69.046875 16.367188 69.484375 16.664062 69.867188 17.050781 C 70.242188 17.441406 70.546875 17.921875 70.777344 18.484375 C 71.007812 19.054688 71.125 19.695312 71.125 20.414062 C 71.125 21.136719 71.007812 21.78125 70.777344 22.34375 C 70.550781 22.910156 70.246094 23.386719 69.867188 23.777344 C 69.488281 24.167969 69.050781 24.460938 68.546875 24.664062 C 68.042969 24.863281 67.523438 24.964844 66.980469 24.964844 Z M 66.980469 23.300781 C 67.617188 23.300781 68.121094 23.039062 68.484375 22.515625 C 68.847656 21.988281 69.03125 21.292969 69.03125 20.417969 C 69.03125 19.542969 68.847656 18.828125 68.484375 18.300781 C 68.121094 17.777344 67.617188 17.515625 66.980469 17.515625 C 66.34375 17.515625 65.84375 17.777344 65.484375 18.300781 C 65.125 18.828125 64.945312 19.53125 64.945312 20.417969 C 64.945312 21.304688 65.125 21.992188 65.484375 22.515625 C 65.84375 23.039062 66.34375 23.300781 66.980469 23.300781 Z M 66.980469 23.300781 " fill-opacity="1" fill-rule="nonzero"/><path fill="#282828" d="M 73.140625 24.753906 L 73.140625 16.0625 L 74.824219 16.0625 L 74.964844 17.230469 L 75.035156 17.230469 C 75.425781 16.851562 75.847656 16.527344 76.300781 16.253906 C 76.753906 15.984375 77.28125 15.847656 77.882812 15.847656 C 78.816406 15.847656 79.496094 16.148438 79.917969 16.742188 C 80.34375 17.339844 80.554688 18.191406 80.554688 19.300781 L 80.554688 24.753906 L 78.519531 24.753906 L 78.519531 19.5625 C 78.519531 18.84375 78.414062 18.335938 78.203125 18.042969 C 77.988281 17.746094 77.640625 17.601562 77.160156 17.601562 C 76.78125 17.601562 76.449219 17.691406 76.160156 17.875 C 75.871094 18.058594 75.542969 18.324219 75.175781 18.679688 L 75.175781 24.753906 Z M 73.140625 24.753906 " fill-opacity="1" fill-rule="nonzero"/><path fill="#282828" d="M 86.773438 13.175781 L 88.824219 13.175781 L 88.824219 24.753906 L 86.773438 24.753906 Z M 86.773438 13.175781 " fill-opacity="1" fill-rule="nonzero"/><path fill="#282828" d="M 91.585938 24.753906 L 91.585938 16.0625 L 93.269531 16.0625 L 93.410156 17.230469 L 93.480469 17.230469 C 93.871094 16.851562 94.292969 16.527344 94.746094 16.253906 C 95.199219 15.984375 95.730469 15.847656 96.332031 15.847656 C 97.261719 15.847656 97.941406 16.148438 98.367188 16.742188 C 98.789062 17.339844 99.003906 18.191406 99.003906 19.300781 L 99.003906 24.753906 L 96.96875 24.753906 L 96.96875 19.5625 C 96.96875 18.84375 96.859375 18.335938 96.648438 18.042969 C 96.4375 17.746094 96.089844 17.601562 95.605469 17.601562 C 95.226562 17.601562 94.894531 17.691406 94.605469 17.875 C 94.316406 18.058594 93.988281 18.324219 93.625 18.679688 L 93.625 24.753906 Z M 91.585938 24.753906 " fill-opacity="1" fill-rule="nonzero"/><path fill="#282828" d="M 101.855469 24.753906 L 101.855469 17.671875 L 100.6875 17.671875 L 100.6875 16.148438 L 101.855469 16.0625 L 101.855469 15.15625 C 101.855469 14.707031 101.910156 14.292969 102.015625 13.910156 C 102.125 13.527344 102.292969 13.195312 102.53125 12.917969 C 102.765625 12.640625 103.0625 12.425781 103.425781 12.269531 C 103.785156 12.117188 104.226562 12.042969 104.746094 12.042969 C 105.050781 12.042969 105.34375 12.070312 105.621094 12.128906 C 105.898438 12.191406 106.136719 12.261719 106.339844 12.34375 L 105.949219 13.863281 C 105.632812 13.722656 105.3125 13.652344 104.996094 13.652344 C 104.261719 13.652344 103.898438 14.144531 103.898438 15.125 L 103.898438 16.0625 L 105.597656 16.0625 L 105.597656 17.671875 L 103.898438 17.671875 L 103.898438 24.753906 Z M 101.855469 24.753906 " fill-opacity="1" fill-rule="nonzero"/><path fill="#282828" d="M 110.496094 24.964844 C 109.953125 24.964844 109.429688 24.863281 108.933594 24.664062 C 108.4375 24.464844 108 24.167969 107.613281 23.777344 C 107.234375 23.386719 106.925781 22.910156 106.703125 22.34375 C 106.476562 21.777344 106.367188 21.136719 106.367188 20.414062 C 106.367188 19.695312 106.476562 19.050781 106.703125 18.484375 C 106.925781 17.917969 107.230469 17.441406 107.613281 17.050781 C 107.996094 16.664062 108.4375 16.363281 108.933594 16.160156 C 109.429688 15.953125 109.953125 15.847656 110.496094 15.847656 C 111.035156 15.847656 111.558594 15.953125 112.0625 16.160156 C 112.5625 16.367188 113 16.664062 113.378906 17.050781 C 113.757812 17.441406 114.0625 17.921875 114.292969 18.484375 C 114.523438 19.054688 114.640625 19.695312 114.640625 20.414062 C 114.640625 21.136719 114.523438 21.78125 114.292969 22.34375 C 114.0625 22.910156 113.761719 23.386719 113.378906 23.777344 C 113 24.167969 112.5625 24.460938 112.0625 24.664062 C 111.558594 24.863281 111.035156 24.964844 110.496094 24.964844 Z M 110.496094 23.300781 C 111.128906 23.300781 111.632812 23.039062 112 22.515625 C 112.363281 21.988281 112.546875 21.292969 112.546875 20.417969 C 112.546875 19.542969 112.363281 18.828125 112 18.300781 C 111.632812 17.777344 111.128906 17.515625 110.496094 17.515625 C 109.859375 17.515625 109.355469 17.777344 109 18.300781 C 108.640625 18.828125 108.457031 19.53125 108.457031 20.417969 C 108.457031 21.304688 108.640625 21.992188 109 22.515625 C 109.359375 23.039062 109.859375 23.300781 110.496094 23.300781 Z M 110.496094 23.300781 " fill-opacity="1" fill-rule="nonzero"/><path fill="#282828" d="M 119.328125 24.964844 C 118.820312 24.964844 118.394531 24.886719 118.046875 24.734375 C 117.699219 24.582031 117.414062 24.363281 117.195312 24.089844 C 116.976562 23.8125 116.816406 23.480469 116.714844 23.097656 C 116.613281 22.714844 116.566406 22.285156 116.566406 21.8125 L 116.566406 17.671875 L 115.328125 17.671875 L 115.328125 16.148438 L 116.671875 16.0625 L 116.917969 13.6875 L 118.617188 13.6875 L 118.617188 16.0625 L 120.832031 16.0625 L 120.832031 17.671875 L 118.617188 17.671875 L 118.617188 21.8125 C 118.617188 22.832031 119.027344 23.335938 119.839844 23.335938 C 119.992188 23.335938 120.152344 23.320312 120.308594 23.28125 C 120.46875 23.246094 120.613281 23.199219 120.742188 23.140625 L 121.097656 24.644531 C 120.859375 24.726562 120.59375 24.800781 120.292969 24.867188 C 119.988281 24.933594 119.667969 24.964844 119.328125 24.964844 Z M 119.328125 24.964844 " fill-opacity="1" fill-rule="nonzero"/><path fill="#282828" d="M 126.089844 24.964844 C 125.488281 24.964844 124.929688 24.859375 124.410156 24.652344 C 123.886719 24.445312 123.433594 24.152344 123.042969 23.761719 C 122.65625 23.371094 122.351562 22.898438 122.132812 22.335938 C 121.910156 21.773438 121.804688 21.132812 121.804688 20.414062 C 121.804688 19.691406 121.914062 19.066406 122.140625 18.5 C 122.363281 17.933594 122.660156 17.457031 123.03125 17.066406 C 123.40625 16.675781 123.832031 16.375 124.316406 16.164062 C 124.796875 15.953125 125.292969 15.847656 125.800781 15.847656 C 126.390625 15.847656 126.914062 15.949219 127.359375 16.148438 C 127.808594 16.347656 128.183594 16.628906 128.484375 16.996094 C 128.785156 17.359375 129.011719 17.796875 129.164062 18.304688 C 129.316406 18.8125 129.394531 19.371094 129.394531 19.96875 C 129.394531 20.167969 129.386719 20.359375 129.367188 20.535156 C 129.351562 20.714844 129.328125 20.855469 129.304688 20.960938 L 123.78125 20.960938 C 123.875 21.738281 124.152344 22.339844 124.605469 22.757812 C 125.058594 23.175781 125.640625 23.386719 126.351562 23.386719 C 126.726562 23.386719 127.078125 23.328125 127.402344 23.21875 C 127.730469 23.105469 128.050781 22.949219 128.367188 22.75 L 129.058594 24.023438 C 128.648438 24.296875 128.1875 24.519531 127.675781 24.699219 C 127.167969 24.875 126.640625 24.964844 126.082031 24.964844 Z M 123.773438 19.582031 L 127.628906 19.582031 C 127.628906 18.910156 127.484375 18.382812 127.195312 18 C 126.90625 17.617188 126.460938 17.425781 125.859375 17.425781 C 125.339844 17.425781 124.886719 17.609375 124.496094 17.972656 C 124.105469 18.339844 123.863281 18.875 123.769531 19.582031 Z M 123.773438 19.582031 " fill-opacity="1" fill-rule="nonzero"/><path fill="#282828" d="M 134.976562 24.964844 C 134.386719 24.964844 133.835938 24.863281 133.324219 24.664062 C 132.808594 24.464844 132.363281 24.167969 131.984375 23.777344 C 131.609375 23.386719 131.3125 22.910156 131.097656 22.34375 C 130.886719 21.777344 130.78125 21.136719 130.78125 20.414062 C 130.78125 19.695312 130.898438 19.050781 131.136719 18.484375 C 131.375 17.917969 131.691406 17.441406 132.089844 17.050781 C 132.492188 16.664062 132.953125 16.363281 133.480469 16.160156 C 134.003906 15.953125 134.558594 15.847656 135.136719 15.847656 C 135.714844 15.847656 136.1875 15.941406 136.597656 16.132812 C 137.003906 16.324219 137.367188 16.550781 137.683594 16.824219 L 136.691406 18.152344 C 136.457031 17.949219 136.222656 17.792969 135.996094 17.683594 C 135.765625 17.570312 135.511719 17.515625 135.242188 17.515625 C 134.535156 17.515625 133.960938 17.777344 133.523438 18.300781 C 133.089844 18.828125 132.871094 19.53125 132.871094 20.417969 C 132.871094 21.304688 133.085938 21.992188 133.515625 22.515625 C 133.949219 23.039062 134.507812 23.300781 135.191406 23.300781 C 135.53125 23.300781 135.855469 23.226562 136.15625 23.078125 C 136.457031 22.933594 136.730469 22.757812 136.980469 22.558594 L 137.808594 23.902344 C 137.398438 24.257812 136.945312 24.519531 136.457031 24.699219 C 135.96875 24.875 135.472656 24.964844 134.976562 24.964844 Z M 134.976562 24.964844 " fill-opacity="1" fill-rule="nonzero"/><path fill="#282828" d="M 139.53125 24.753906 L 139.53125 12.253906 L 141.566406 12.253906 L 141.566406 15.476562 L 141.492188 17.160156 C 141.859375 16.816406 142.261719 16.511719 142.707031 16.246094 C 143.152344 15.980469 143.671875 15.847656 144.273438 15.847656 C 145.207031 15.847656 145.886719 16.144531 146.308594 16.738281 C 146.734375 17.335938 146.945312 18.1875 146.945312 19.296875 L 146.945312 24.75 L 144.910156 24.75 L 144.910156 19.5625 C 144.910156 18.839844 144.804688 18.332031 144.59375 18.039062 C 144.378906 17.742188 144.03125 17.597656 143.546875 17.597656 C 143.171875 17.597656 142.839844 17.6875 142.550781 17.871094 C 142.261719 18.054688 141.933594 18.324219 141.566406 18.679688 L 141.566406 24.75 L 139.53125 24.75 Z M 139.53125 24.753906 " fill-opacity="1" fill-rule="nonzero"/><path fill="#282828" d="M 16.503906 25.519531 L 3.152344 30.152344 L 29.863281 30.152344 Z M 16.503906 25.519531 " fill-opacity="1" fill-rule="nonzero"/><path fill="#282828" d="M 19.269531 20.742188 L 29.964844 29.976562 L 16.617188 6.855469 Z M 19.269531 20.742188 " fill-opacity="1" fill-rule="nonzero"/><path fill="#282828" d="M 13.769531 20.742188 L 3.054688 29.976562 L 16.417969 6.855469 Z M 13.769531 20.742188 " fill-opacity="1" fill-rule="nonzero"/><path fill="#282828" d="M 16.203125 24.441406 C 15.15625 24.433594 14.507812 24.21875 14.132812 24.023438 C 14.027344 23.964844 14.121094 23.972656 14.089844 23.929688 C 14.035156 23.847656 13.925781 23.742188 14.019531 23.808594 C 14.359375 24.027344 15.121094 24.363281 16.578125 24.3125 C 16.597656 24.3125 18.09375 24.34375 18.996094 23.902344 C 19.128906 23.835938 19.027344 23.902344 18.933594 24.066406 C 18.011719 24.464844 16.644531 24.4375 16.578125 24.4375 C 16.449219 24.445312 16.324219 24.445312 16.207031 24.445312 Z M 16.203125 24.441406 " fill-opacity="1" fill-rule="nonzero"/><path fill="#282828" d="M 16.804688 23.5 C 16.671875 23.5 16.582031 23.496094 16.570312 23.496094 C 14.734375 23.496094 13.933594 23.140625 13.691406 23.003906 C 13.636719 22.972656 13.671875 22.964844 13.667969 22.957031 L 13.683594 22.851562 L 13.644531 22.902344 L 13.683594 22.851562 C 13.683594 22.851562 14.402344 23.371094 16.570312 23.371094 C 16.59375 23.371094 18.5625 23.457031 19.375 22.726562 L 19.457031 22.816406 C 18.773438 23.433594 17.367188 23.5 16.804688 23.5 Z M 16.804688 23.5 " fill-opacity="1" fill-rule="nonzero"/><path fill="#282828" d="M 16.789062 21.632812 C 16.652344 21.632812 16.566406 21.625 16.550781 21.625 C 14.992188 21.625 14.175781 21.371094 13.820312 21.210938 C 13.738281 21.171875 13.84375 21.175781 13.871094 21.148438 C 13.890625 21.125 13.8125 21.070312 13.878906 21.097656 C 14.222656 21.25 15.027344 21.503906 16.558594 21.503906 C 16.578125 21.503906 18.265625 21.578125 19.160156 21.007812 C 19.195312 20.988281 19.210938 21.019531 19.230469 21.042969 C 19.25 21.070312 19.261719 21.089844 19.222656 21.117188 C 18.488281 21.578125 17.296875 21.632812 16.792969 21.632812 Z M 16.789062 21.632812 " fill-opacity="1" fill-rule="nonzero"/><path fill="#282828" d="M 16.789062 22.585938 C 16.652344 22.585938 16.566406 22.582031 16.550781 22.582031 C 14.332031 22.582031 13.621094 22.0625 13.589844 22.039062 L 13.664062 21.941406 L 13.628906 21.988281 L 13.664062 21.941406 C 13.664062 21.941406 14.382812 22.457031 16.554688 22.457031 C 16.578125 22.457031 18.546875 22.542969 19.355469 21.8125 L 19.417969 21.742188 L 19.4375 21.90625 C 18.753906 22.523438 17.347656 22.589844 16.785156 22.589844 Z M 16.789062 22.585938 " fill-opacity="1" fill-rule="nonzero"/><path fill="#282828" d="M 16.664062 20.613281 C 16.402344 20.613281 16.140625 20.597656 15.902344 20.566406 C 15.253906 20.476562 14.742188 20.332031 14.472656 20.242188 C 14.394531 20.21875 14.480469 20.199219 14.511719 20.175781 C 14.535156 20.15625 14.492188 20.121094 14.566406 20.144531 C 14.84375 20.234375 15.320312 20.363281 15.917969 20.445312 C 16.34375 20.503906 16.851562 20.507812 17.277344 20.460938 C 17.65625 20.414062 18.144531 20.328125 18.503906 20.152344 C 18.527344 20.140625 18.539062 20.160156 18.554688 20.183594 C 18.574219 20.210938 18.671875 20.203125 18.636719 20.222656 C 18.25 20.433594 17.707031 20.535156 17.292969 20.582031 C 17.09375 20.605469 16.882812 20.617188 16.664062 20.617188 Z M 16.664062 20.613281 " fill-opacity="1" fill-rule="nonzero"/><path fill="#282828" d="M 16.777344 19.761719 C 16.710938 19.761719 16.644531 19.761719 16.578125 19.757812 C 15.96875 19.730469 15.582031 19.628906 15.566406 19.625 L 15.597656 19.503906 C 15.597656 19.503906 15.988281 19.609375 16.578125 19.632812 C 17.105469 19.652344 17.570312 19.582031 17.691406 19.558594 L 17.71875 19.675781 C 17.601562 19.703125 17.226562 19.757812 16.777344 19.757812 Z M 16.777344 19.761719 " fill-opacity="1" fill-rule="nonzero"/><path fill="#282828" d="M 18.480469 24.574219 L 18.371094 24.511719 C 18.835938 23.71875 18.9375 22.910156 18.941406 22.90625 C 19.0625 22.171875 18.839844 21.304688 18.839844 21.296875 C 18.746094 20.863281 18.410156 20.132812 18.410156 20.125 L 18.523438 20.074219 C 18.539062 20.105469 18.867188 20.824219 18.960938 21.269531 C 18.96875 21.304688 19.1875 22.167969 19.0625 22.921875 C 19.058594 22.953125 18.957031 23.757812 18.480469 24.574219 Z M 18.480469 24.574219 " fill-opacity="1" fill-rule="nonzero"/><path fill="#282828" d="M 17.207031 25.226562 L 17.121094 25.136719 C 17.121094 25.136719 17.46875 24.800781 17.734375 24.136719 C 17.734375 24.128906 18.011719 23.472656 18.035156 22.550781 C 18.035156 22.527344 18.035156 20.214844 17.476562 19.613281 L 17.566406 19.53125 C 18.160156 20.167969 18.164062 22.453125 18.164062 22.550781 C 18.136719 23.5 17.863281 24.15625 17.847656 24.183594 C 17.574219 24.875 17.222656 25.214844 17.207031 25.226562 Z M 17.207031 25.226562 " fill-opacity="1" fill-rule="nonzero"/><path fill="#282828" d="M 16.480469 25.257812 L 16.511719 19.390625 L 16.636719 19.390625 L 16.605469 25.257812 Z M 16.480469 25.257812 " fill-opacity="1" fill-rule="nonzero"/><path fill="#282828" d="M 16.078125 25.246094 C 15.6875 24.820312 15.410156 24.34375 15.222656 23.777344 C 14.976562 23.035156 15.015625 21.679688 15.207031 20.921875 C 15.390625 20.1875 15.742188 19.464844 15.746094 19.457031 L 15.859375 19.511719 C 15.859375 19.511719 15.511719 20.230469 15.328125 20.957031 C 15.144531 21.691406 15.101562 23.019531 15.339844 23.742188 C 15.519531 24.289062 15.792969 24.753906 16.167969 25.164062 L 16.078125 25.25 Z M 16.078125 25.246094 " fill-opacity="1" fill-rule="nonzero"/><path fill="#282828" d="M 14.765625 24.6875 C 14.746094 24.660156 14.726562 24.679688 14.707031 24.648438 C 14.28125 24.003906 14.113281 23.304688 14.046875 22.820312 C 13.976562 22.328125 14.011719 21.832031 14.144531 21.339844 C 14.351562 20.597656 14.660156 20.027344 14.660156 20.019531 L 14.769531 20.078125 C 14.769531 20.078125 14.46875 20.644531 14.265625 21.371094 C 14.132812 21.847656 14.097656 22.328125 14.167969 22.804688 C 14.234375 23.292969 14.410156 24.015625 14.863281 24.667969 L 14.761719 24.691406 Z M 14.765625 24.6875 " fill-opacity="1" fill-rule="nonzero"/><path fill="#282828" d="M 16.542969 25.304688 C 14.894531 25.304688 13.554688 23.964844 13.554688 22.316406 C 13.554688 20.667969 14.894531 19.324219 16.542969 19.324219 C 18.191406 19.324219 19.535156 20.667969 19.535156 22.316406 C 19.535156 23.964844 18.191406 25.304688 16.542969 25.304688 Z M 16.542969 19.449219 C 14.964844 19.449219 13.675781 20.734375 13.675781 22.316406 C 13.675781 23.894531 14.964844 25.183594 16.542969 25.183594 C 18.125 25.183594 19.410156 23.894531 19.410156 22.316406 C 19.410156 20.734375 18.125 19.449219 16.542969 19.449219 Z M 16.542969 19.449219 " fill-opacity="1" fill-rule="nonzero"/><path fill="#282828" d="M 16.867188 22.75 C 16.890625 22.75 16.902344 22.726562 16.902344 22.683594 C 16.902344 22.65625 16.898438 22.636719 16.886719 22.625 C 16.878906 22.617188 16.863281 22.601562 16.839844 22.582031 C 16.824219 22.609375 16.8125 22.625 16.8125 22.628906 C 16.8125 22.632812 16.8125 22.652344 16.8125 22.683594 C 16.8125 22.707031 16.816406 22.722656 16.824219 22.734375 C 16.832031 22.746094 16.847656 22.75 16.871094 22.75 " fill-opacity="1" fill-rule="nonzero"/><path fill="#282828" d="M 15.058594 19.8125 C 15.058594 19.8125 15.058594 19.828125 15.0625 19.839844 C 15.0625 19.839844 15.078125 19.851562 15.097656 19.855469 L 15.117188 19.855469 C 15.117188 19.855469 15.117188 19.835938 15.128906 19.824219 C 15.140625 19.816406 15.152344 19.808594 15.183594 19.8125 C 15.183594 19.8125 15.199219 19.8125 15.207031 19.8125 L 15.21875 19.8125 C 15.21875 19.8125 15.25 19.816406 15.304688 19.804688 C 15.304688 19.804688 15.371094 19.792969 15.398438 19.796875 L 15.398438 19.722656 C 15.398438 19.722656 15.359375 19.683594 15.378906 19.664062 C 15.394531 19.640625 15.445312 19.636719 15.457031 19.640625 C 15.46875 19.644531 15.621094 19.683594 15.660156 19.691406 C 15.703125 19.699219 15.746094 19.714844 15.792969 19.707031 C 15.839844 19.699219 15.839844 19.675781 15.847656 19.671875 C 15.855469 19.664062 15.867188 19.652344 15.902344 19.652344 C 15.933594 19.648438 16.046875 19.644531 16.050781 19.660156 C 16.054688 19.675781 16.035156 19.699219 16.007812 19.710938 C 15.976562 19.722656 15.949219 19.746094 15.945312 19.785156 C 15.941406 19.824219 15.941406 19.835938 16.019531 19.839844 C 16.019531 19.839844 16.019531 19.839844 16.027344 19.832031 C 16.035156 19.824219 16.050781 19.792969 16.0625 19.765625 C 16.070312 19.738281 16.089844 19.722656 16.097656 19.722656 C 16.105469 19.71875 16.195312 19.707031 16.25 19.683594 C 16.25 19.683594 16.269531 19.664062 16.242188 19.652344 C 16.214844 19.640625 16.179688 19.621094 16.175781 19.601562 L 16.175781 19.585938 C 16.175781 19.585938 16.207031 19.585938 16.242188 19.574219 C 16.277344 19.5625 16.289062 19.546875 16.296875 19.535156 C 16.300781 19.527344 16.308594 19.507812 16.335938 19.496094 C 16.359375 19.488281 16.4375 19.496094 16.4375 19.496094 C 16.4375 19.496094 16.464844 19.496094 16.476562 19.503906 C 16.488281 19.507812 16.507812 19.507812 16.535156 19.503906 C 16.5625 19.496094 16.585938 19.488281 16.582031 19.476562 C 16.578125 19.46875 16.542969 19.441406 16.527344 19.4375 C 16.511719 19.4375 16.511719 19.4375 16.503906 19.4375 C 16.496094 19.4375 16.449219 19.4375 16.421875 19.429688 C 16.398438 19.417969 16.394531 19.417969 16.394531 19.417969 C 16.394531 19.417969 16.378906 19.386719 16.347656 19.390625 C 16.320312 19.390625 15.828125 19.394531 15.410156 19.609375 C 15.410156 19.609375 15.210938 19.683594 15.0625 19.8125 Z M 15.058594 19.8125 " fill-opacity="1" fill-rule="nonzero"/><path fill="#282828" d="M 18.832031 23.136719 C 18.832031 23.136719 18.746094 23.144531 18.734375 23.144531 C 18.734375 23.144531 18.699219 23.195312 18.660156 23.199219 C 18.621094 23.199219 18.574219 23.171875 18.546875 23.207031 C 18.546875 23.207031 18.53125 23.238281 18.519531 23.238281 C 18.507812 23.238281 18.515625 23.234375 18.496094 23.234375 C 18.476562 23.234375 18.40625 23.234375 18.382812 23.234375 C 18.359375 23.234375 18.339844 23.226562 18.324219 23.207031 C 18.3125 23.191406 18.285156 23.1875 18.246094 23.199219 C 18.203125 23.214844 18.152344 23.226562 18.109375 23.21875 C 18.070312 23.214844 18.0625 23.214844 18.0625 23.214844 C 18.0625 23.214844 18.054688 23.121094 18.042969 23.085938 C 18.03125 23.050781 18.003906 23.027344 17.976562 23 C 17.949219 22.972656 17.941406 22.917969 17.945312 22.890625 C 17.945312 22.890625 17.960938 22.882812 17.984375 22.875 L 17.984375 22.8125 C 17.984375 22.8125 17.945312 22.824219 17.933594 22.789062 C 17.933594 22.789062 17.929688 22.707031 17.898438 22.691406 C 17.898438 22.691406 17.890625 22.683594 17.863281 22.675781 C 17.835938 22.667969 17.816406 22.664062 17.804688 22.621094 C 17.804688 22.621094 17.808594 22.585938 17.78125 22.570312 C 17.753906 22.558594 17.742188 22.554688 17.734375 22.535156 C 17.722656 22.515625 17.722656 22.515625 17.722656 22.507812 C 17.71875 22.5 17.710938 22.449219 17.722656 22.410156 C 17.730469 22.375 17.742188 22.34375 17.742188 22.34375 C 17.742188 22.34375 17.738281 22.328125 17.742188 22.324219 C 17.742188 22.324219 17.769531 22.308594 17.800781 22.316406 C 17.835938 22.324219 17.917969 22.417969 17.917969 22.417969 C 17.917969 22.417969 17.976562 22.480469 17.996094 22.488281 C 18.015625 22.496094 18.019531 22.496094 18.03125 22.476562 C 18.042969 22.453125 18.046875 22.4375 18.058594 22.429688 C 18.070312 22.417969 18.082031 22.410156 18.089844 22.410156 L 18.136719 22.355469 C 18.136719 22.355469 18.144531 22.355469 18.144531 22.296875 C 18.144531 22.234375 18.128906 22.230469 18.125 22.222656 C 18.117188 22.21875 18.09375 22.203125 18.082031 22.191406 C 18.074219 22.183594 18.050781 22.140625 18.042969 22.132812 C 18.039062 22.121094 18.023438 22.101562 18.015625 22.09375 C 18.011719 22.085938 17.972656 22.054688 17.964844 22.050781 C 17.953125 22.046875 17.929688 22.015625 17.929688 21.980469 C 17.929688 21.980469 17.929688 21.941406 17.929688 21.9375 C 17.929688 21.933594 17.964844 21.890625 17.964844 21.890625 C 17.964844 21.890625 18.035156 21.890625 18.050781 21.890625 C 18.070312 21.890625 18.109375 21.871094 18.140625 21.847656 C 18.171875 21.820312 18.210938 21.78125 18.226562 21.769531 C 18.238281 21.757812 18.34375 21.652344 18.34375 21.652344 C 18.34375 21.652344 18.363281 21.628906 18.367188 21.628906 C 18.371094 21.628906 18.386719 21.628906 18.382812 21.636719 C 18.382812 21.644531 18.363281 21.679688 18.433594 21.714844 C 18.4375 21.714844 18.460938 21.714844 18.460938 21.714844 L 18.460938 21.601562 C 18.460938 21.601562 18.410156 21.589844 18.390625 21.539062 C 18.390625 21.539062 18.355469 21.410156 18.34375 21.378906 C 18.332031 21.34375 18.292969 21.277344 18.285156 21.265625 C 18.277344 21.25 18.261719 21.210938 18.253906 21.191406 C 18.246094 21.175781 18.230469 21.144531 18.230469 21.085938 L 18.230469 21.039062 C 18.230469 21.039062 18.171875 21.039062 18.132812 21.039062 C 18.097656 21.039062 18.050781 21.011719 18.046875 20.992188 C 18.058594 20.988281 18.105469 20.960938 18.164062 20.9375 C 18.226562 20.917969 18.242188 20.929688 18.269531 20.949219 C 18.292969 20.964844 18.332031 20.996094 18.371094 21.042969 C 18.40625 21.089844 18.472656 21.136719 18.472656 21.136719 C 18.472656 21.136719 18.464844 21.085938 18.464844 21.074219 C 18.464844 21.0625 18.453125 21.027344 18.433594 21.015625 C 18.433594 21.015625 18.40625 21 18.390625 20.960938 L 18.320312 20.828125 C 18.320312 20.828125 18.296875 20.792969 18.332031 20.730469 C 18.332031 20.730469 18.359375 20.6875 18.359375 20.660156 C 18.359375 20.636719 18.34375 20.59375 18.351562 20.574219 C 18.355469 20.550781 18.363281 20.542969 18.375 20.539062 C 18.386719 20.535156 18.398438 20.515625 18.394531 20.496094 C 18.390625 20.472656 18.351562 20.414062 18.265625 20.339844 C 18.265625 20.339844 18.21875 20.265625 18.09375 20.242188 C 18.09375 20.242188 17.949219 20.234375 17.941406 20.148438 L 17.949219 20.101562 L 17.917969 20.101562 L 17.886719 20.046875 L 17.988281 20.046875 C 17.988281 20.046875 17.988281 19.964844 17.988281 19.964844 C 17.988281 19.964844 17.996094 19.945312 18.023438 19.957031 C 18.023438 19.957031 18.082031 20.058594 18.105469 20.082031 C 18.125 20.105469 18.132812 20.09375 18.152344 20.121094 C 18.167969 20.148438 18.246094 20.183594 18.273438 20.191406 C 18.304688 20.203125 18.351562 20.226562 18.351562 20.226562 L 18.351562 20.199219 C 18.351562 20.199219 18.277344 20.125 18.285156 20.085938 C 18.285156 20.085938 18.277344 20.066406 18.324219 20.058594 C 18.371094 20.050781 18.371094 20.027344 18.371094 20.027344 C 18.371094 20.027344 18.125 19.832031 18.03125 19.785156 C 17.941406 19.738281 17.535156 19.515625 17.433594 19.53125 C 17.433594 19.53125 17.445312 19.554688 17.441406 19.558594 C 17.433594 19.558594 17.382812 19.558594 17.339844 19.597656 C 17.339844 19.597656 17.339844 19.605469 17.332031 19.597656 C 17.328125 19.589844 17.3125 19.558594 17.296875 19.542969 C 17.296875 19.542969 17.277344 19.507812 17.28125 19.492188 C 17.28125 19.476562 17.191406 19.464844 17.1875 19.472656 C 17.179688 19.480469 17.167969 19.488281 17.167969 19.515625 C 17.164062 19.542969 17.160156 19.546875 17.160156 19.546875 C 17.160156 19.546875 17.207031 19.5625 17.246094 19.570312 C 17.246094 19.570312 17.273438 19.578125 17.28125 19.605469 C 17.28125 19.605469 17.28125 19.628906 17.28125 19.640625 C 17.28125 19.652344 17.273438 19.65625 17.253906 19.671875 C 17.253906 19.671875 17.242188 19.675781 17.199219 19.679688 C 17.199219 19.679688 17.179688 19.679688 17.167969 19.699219 C 17.152344 19.71875 17.121094 19.746094 17.105469 19.746094 C 17.089844 19.746094 17.078125 19.742188 17.074219 19.753906 C 17.066406 19.769531 17.0625 19.8125 17.0625 19.8125 C 17.0625 19.8125 17.003906 19.8125 16.992188 19.785156 C 16.992188 19.785156 17 19.75 16.945312 19.761719 C 16.945312 19.761719 16.871094 19.765625 16.859375 19.765625 C 16.859375 19.765625 16.863281 19.734375 16.847656 19.707031 C 16.832031 19.679688 16.804688 19.683594 16.804688 19.683594 C 16.804688 19.683594 16.699219 19.667969 16.667969 19.683594 C 16.636719 19.703125 16.617188 19.699219 16.621094 19.730469 C 16.621094 19.730469 16.671875 19.730469 16.703125 19.730469 C 16.734375 19.730469 16.757812 19.75 16.761719 19.765625 C 16.761719 19.777344 16.765625 19.804688 16.726562 19.816406 C 16.726562 19.816406 16.710938 19.824219 16.679688 19.824219 C 16.648438 19.832031 16.617188 19.847656 16.605469 19.894531 C 16.605469 19.894531 16.578125 19.898438 16.5625 19.894531 C 16.542969 19.886719 16.472656 19.871094 16.441406 19.917969 C 16.410156 19.964844 16.410156 19.988281 16.417969 20.011719 C 16.417969 20.011719 16.40625 20.019531 16.382812 20.015625 C 16.355469 20.011719 16.347656 20.019531 16.347656 20 C 16.347656 19.980469 16.34375 19.960938 16.335938 19.949219 C 16.332031 19.9375 16.320312 19.886719 16.34375 19.863281 C 16.371094 19.839844 16.394531 19.84375 16.394531 19.84375 C 16.394531 19.84375 16.441406 19.859375 16.457031 19.820312 C 16.476562 19.785156 16.46875 19.695312 16.46875 19.695312 L 16.46875 19.6875 C 16.46875 19.6875 16.4375 19.691406 16.398438 19.695312 C 16.359375 19.699219 16.324219 19.699219 16.308594 19.722656 C 16.308594 19.722656 16.375 19.734375 16.390625 19.738281 C 16.410156 19.738281 16.417969 19.75 16.402344 19.785156 C 16.382812 19.824219 16.292969 19.824219 16.292969 19.824219 C 16.292969 19.824219 16.222656 19.824219 16.195312 19.867188 C 16.171875 19.910156 16.214844 19.917969 16.242188 19.953125 C 16.242188 19.953125 16.253906 19.964844 16.25 19.984375 C 16.25 19.984375 16.242188 19.984375 16.234375 19.984375 C 16.234375 19.984375 16.226562 19.984375 16.207031 19.984375 C 16.191406 19.984375 16.089844 19.992188 15.964844 20.003906 C 15.964844 20.003906 15.9375 20.015625 15.914062 19.96875 C 15.914062 19.96875 15.898438 19.855469 15.855469 19.871094 C 15.855469 19.871094 15.78125 19.886719 15.761719 19.863281 C 15.761719 19.863281 15.738281 19.84375 15.742188 19.8125 C 15.742188 19.8125 15.71875 19.777344 15.6875 19.8125 C 15.6875 19.8125 15.671875 19.839844 15.679688 19.878906 C 15.679688 19.878906 15.640625 19.871094 15.597656 19.871094 C 15.558594 19.867188 15.550781 19.894531 15.566406 19.917969 L 15.464844 19.917969 C 15.464844 19.917969 15.4375 19.910156 15.40625 19.960938 C 15.40625 19.960938 15.402344 19.972656 15.378906 19.96875 C 15.378906 19.96875 15.300781 19.957031 15.285156 19.980469 C 15.285156 19.980469 15.277344 19.992188 15.269531 20 C 15.265625 20.011719 15.257812 20.019531 15.238281 20.019531 C 15.238281 20.019531 15.210938 20.019531 15.199219 20.007812 L 15.175781 19.976562 C 15.175781 19.976562 15.160156 19.964844 15.128906 19.976562 C 15.128906 19.976562 15.128906 19.980469 15.128906 19.992188 C 15.128906 20.003906 15.152344 20.070312 15.15625 20.09375 C 15.160156 20.113281 15.15625 20.167969 15.132812 20.167969 C 15.132812 20.167969 15.074219 20.171875 15.050781 20.171875 L 15.042969 20.171875 C 15.042969 20.171875 15.042969 20.257812 15.042969 20.257812 L 14.996094 20.257812 C 14.996094 20.257812 14.957031 20.207031 14.945312 20.199219 C 14.945312 20.199219 14.953125 20.179688 14.988281 20.15625 C 14.988281 20.15625 15.015625 20.144531 15.027344 20.125 C 15.027344 20.125 15.03125 20.113281 15.03125 20.097656 C 15.03125 20.097656 15.050781 20.097656 15.0625 20.09375 C 15.070312 20.089844 15.078125 20.089844 15.078125 20.085938 C 15.078125 20.078125 15.078125 20.066406 15.070312 20.039062 C 15.066406 20.011719 15.046875 19.964844 15.046875 19.964844 C 15.046875 19.964844 15.03125 20.003906 15.019531 20.054688 C 15.019531 20.054688 15 20.046875 14.976562 20.050781 C 14.976562 20.050781 14.964844 20.050781 14.960938 20.054688 C 14.957031 20.058594 14.9375 20.082031 14.925781 20.089844 C 14.925781 20.089844 14.902344 20.105469 14.855469 20.097656 C 14.855469 20.097656 14.808594 20.097656 14.796875 20.1875 C 14.796875 20.1875 14.789062 20.222656 14.785156 20.242188 C 14.78125 20.261719 14.777344 20.292969 14.75 20.300781 C 14.75 20.300781 14.675781 20.308594 14.660156 20.316406 C 14.644531 20.328125 14.644531 20.339844 14.640625 20.347656 C 14.636719 20.359375 14.628906 20.402344 14.566406 20.417969 C 14.5 20.433594 14.480469 20.460938 14.46875 20.480469 C 14.46875 20.480469 14.359375 20.570312 14.332031 20.605469 C 14.332031 20.605469 14.300781 20.636719 14.300781 20.691406 C 14.300781 20.75 14.300781 20.769531 14.300781 20.769531 L 14.347656 20.769531 C 14.347656 20.769531 14.375 20.730469 14.425781 20.699219 C 14.425781 20.699219 14.472656 20.683594 14.5 20.679688 C 14.53125 20.675781 14.546875 20.65625 14.554688 20.640625 C 14.5625 20.628906 14.570312 20.601562 14.609375 20.601562 C 14.648438 20.601562 14.65625 20.636719 14.65625 20.644531 C 14.65625 20.65625 14.644531 20.679688 14.59375 20.695312 L 14.554688 20.714844 L 14.554688 20.742188 C 14.554688 20.742188 14.625 20.742188 14.625 20.742188 C 14.625 20.742188 14.648438 20.707031 14.671875 20.703125 C 14.671875 20.703125 14.671875 20.726562 14.679688 20.734375 L 14.679688 20.824219 C 14.679688 20.824219 14.566406 20.84375 14.535156 20.890625 L 14.535156 20.964844 C 14.535156 20.964844 14.589844 20.9375 14.628906 20.910156 C 14.667969 20.882812 14.6875 20.882812 14.703125 20.878906 C 14.703125 20.878906 14.734375 20.875 14.742188 20.941406 C 14.742188 20.941406 14.734375 21 14.730469 21.015625 C 14.730469 21.035156 14.730469 21.105469 14.730469 21.105469 L 14.789062 21.105469 L 14.789062 21.035156 C 14.789062 21.035156 14.789062 20.984375 14.859375 21 L 14.859375 20.902344 L 14.894531 20.902344 C 14.894531 20.902344 14.902344 21.011719 14.894531 21.070312 C 14.894531 21.070312 14.925781 21.097656 14.941406 21.117188 C 14.960938 21.132812 14.976562 21.144531 14.996094 21.140625 C 15.019531 21.140625 15.023438 21.140625 15.023438 21.140625 L 15.042969 21.117188 L 15.082031 21.117188 C 15.082031 21.117188 15.105469 21.175781 15.0625 21.210938 C 15.0625 21.210938 15.003906 21.257812 14.972656 21.300781 L 14.949219 21.328125 C 14.949219 21.328125 14.941406 21.339844 14.921875 21.34375 C 14.921875 21.34375 14.820312 21.371094 14.707031 21.246094 C 14.707031 21.246094 14.648438 21.144531 14.613281 21.171875 C 14.613281 21.171875 14.585938 21.183594 14.574219 21.214844 C 14.5625 21.246094 14.539062 21.25 14.539062 21.25 L 14.464844 21.214844 C 14.464844 21.214844 14.460938 21.164062 14.476562 21.136719 L 14.476562 21.089844 C 14.476562 21.089844 14.402344 21.089844 14.378906 21.03125 C 14.378906 21.03125 14.359375 20.984375 14.414062 20.964844 C 14.460938 20.941406 14.5 20.933594 14.503906 20.894531 C 14.503906 20.859375 14.464844 20.847656 14.441406 20.847656 C 14.414062 20.847656 14.378906 20.855469 14.359375 20.824219 C 14.339844 20.792969 14.328125 20.757812 14.273438 20.777344 C 14.273438 20.777344 14.25 20.777344 14.234375 20.816406 C 14.234375 20.816406 14.210938 20.851562 14.160156 20.855469 C 14.160156 20.855469 14.125 20.847656 14.105469 20.824219 C 14.085938 20.800781 14.050781 20.789062 14.03125 20.796875 C 14.011719 20.800781 13.785156 21.109375 13.6875 21.679688 L 13.644531 22.0625 C 13.644531 22.0625 13.683594 22.15625 13.703125 22.183594 C 13.726562 22.207031 13.75 22.1875 13.777344 22.222656 C 13.808594 22.253906 13.820312 22.304688 13.855469 22.355469 C 13.890625 22.40625 13.914062 22.519531 13.921875 22.582031 C 13.929688 22.644531 13.929688 22.691406 13.929688 22.691406 C 13.929688 22.691406 13.917969 22.742188 13.949219 22.785156 C 13.980469 22.824219 14.035156 22.925781 14.035156 22.925781 C 14.035156 22.925781 14.078125 23.078125 14.085938 23.117188 C 14.09375 23.160156 14.125 23.40625 14.179688 23.511719 C 14.234375 23.613281 14.402344 23.929688 14.402344 23.929688 C 14.402344 23.929688 14.488281 24.136719 14.625 24.1875 C 14.625 24.1875 14.644531 24.207031 14.703125 24.210938 C 14.761719 24.214844 14.792969 24.210938 14.804688 24.175781 C 14.816406 24.144531 14.804688 24.105469 14.824219 24.042969 C 14.839844 23.984375 14.859375 23.957031 14.871094 23.941406 C 14.878906 23.925781 14.871094 23.882812 14.855469 23.863281 C 14.84375 23.847656 14.808594 23.78125 14.84375 23.714844 C 14.84375 23.714844 14.871094 23.683594 14.898438 23.664062 C 14.929688 23.648438 14.96875 23.601562 14.96875 23.542969 C 14.964844 23.488281 14.9375 23.433594 14.910156 23.386719 C 14.886719 23.335938 14.863281 23.242188 14.886719 23.160156 C 14.910156 23.074219 14.914062 23.050781 14.9375 23.03125 C 14.957031 23.011719 15.027344 22.984375 15.074219 22.953125 C 15.121094 22.917969 15.164062 22.863281 15.175781 22.84375 C 15.191406 22.824219 15.246094 22.746094 15.269531 22.714844 C 15.292969 22.683594 15.328125 22.644531 15.355469 22.597656 C 15.382812 22.550781 15.390625 22.523438 15.410156 22.503906 C 15.425781 22.484375 15.472656 22.40625 15.4375 22.40625 C 15.40625 22.40625 15.269531 22.40625 15.269531 22.40625 C 15.269531 22.40625 15.105469 22.417969 15.046875 22.234375 C 15.046875 22.234375 15.015625 22.175781 15.003906 22.140625 C 14.988281 22.109375 14.984375 22.09375 14.988281 22.035156 C 14.988281 22.035156 14.992188 22.003906 14.976562 21.992188 C 14.957031 21.976562 14.910156 21.9375 14.902344 21.894531 C 14.902344 21.847656 14.902344 21.78125 14.902344 21.695312 C 14.898438 21.613281 14.890625 21.578125 14.910156 21.539062 C 14.933594 21.5 15 21.53125 14.996094 21.550781 C 14.988281 21.574219 14.996094 21.585938 14.992188 21.621094 C 14.988281 21.652344 14.972656 21.6875 14.984375 21.71875 C 14.992188 21.75 15.058594 21.902344 15.066406 21.960938 C 15.074219 22.023438 15.082031 22.125 15.078125 22.171875 C 15.070312 22.21875 15.054688 22.328125 15.109375 22.320312 C 15.160156 22.3125 15.183594 22.316406 15.253906 22.28125 C 15.324219 22.242188 15.351562 22.269531 15.375 22.261719 C 15.398438 22.253906 15.484375 22.1875 15.519531 22.164062 C 15.550781 22.140625 15.667969 22.101562 15.773438 22.027344 C 15.875 21.953125 15.867188 21.90625 15.847656 21.890625 C 15.847656 21.890625 15.832031 21.886719 15.8125 21.882812 C 15.8125 21.882812 15.746094 21.875 15.75 21.773438 C 15.75 21.773438 15.773438 21.679688 15.714844 21.707031 C 15.714844 21.707031 15.691406 21.71875 15.675781 21.757812 C 15.675781 21.757812 15.667969 21.800781 15.640625 21.800781 C 15.640625 21.800781 15.558594 21.820312 15.546875 21.757812 C 15.546875 21.757812 15.535156 21.691406 15.488281 21.636719 C 15.488281 21.636719 15.433594 21.550781 15.449219 21.480469 C 15.449219 21.480469 15.484375 21.453125 15.488281 21.453125 C 15.492188 21.453125 15.5 21.453125 15.5 21.453125 C 15.5 21.453125 15.503906 21.492188 15.53125 21.546875 C 15.550781 21.597656 15.589844 21.667969 15.640625 21.679688 C 15.640625 21.679688 15.648438 21.6875 15.664062 21.6875 C 15.679688 21.6875 15.714844 21.691406 15.726562 21.691406 C 15.734375 21.695312 15.757812 21.691406 15.761719 21.699219 C 15.761719 21.703125 15.765625 21.714844 15.839844 21.75 C 15.839844 21.75 15.878906 21.78125 15.898438 21.777344 C 15.917969 21.773438 16.042969 21.746094 16.109375 21.757812 C 16.171875 21.769531 16.179688 21.75 16.222656 21.820312 C 16.269531 21.886719 16.296875 21.914062 16.296875 21.914062 C 16.296875 21.914062 16.300781 21.921875 16.308594 21.949219 C 16.3125 21.976562 16.324219 21.988281 16.371094 21.984375 C 16.414062 21.980469 16.4375 22.007812 16.441406 22.027344 C 16.449219 22.050781 16.449219 22.09375 16.449219 22.121094 C 16.449219 22.144531 16.488281 22.25 16.503906 22.277344 C 16.515625 22.300781 16.53125 22.335938 16.527344 22.351562 C 16.527344 22.367188 16.515625 22.382812 16.535156 22.421875 C 16.550781 22.464844 16.59375 22.535156 16.601562 22.550781 C 16.609375 22.5625 16.660156 22.628906 16.703125 22.636719 C 16.703125 22.636719 16.738281 22.648438 16.785156 22.5625 C 16.828125 22.480469 16.835938 22.425781 16.835938 22.425781 C 16.835938 22.425781 16.824219 22.285156 16.882812 22.222656 C 16.941406 22.160156 16.914062 22.207031 16.992188 22.128906 C 17.074219 22.050781 17.097656 22.015625 17.097656 22.015625 L 17.125 21.976562 C 17.125 21.976562 17.132812 21.953125 17.175781 21.960938 C 17.21875 21.96875 17.234375 21.960938 17.25 21.957031 C 17.25 21.957031 17.257812 21.949219 17.261719 21.921875 C 17.261719 21.894531 17.269531 21.847656 17.285156 21.835938 L 17.324219 21.835938 C 17.324219 21.835938 17.296875 21.894531 17.359375 21.953125 C 17.359375 21.953125 17.421875 22 17.441406 22.015625 C 17.460938 22.03125 17.472656 22.042969 17.476562 22.089844 C 17.476562 22.136719 17.484375 22.207031 17.519531 22.230469 L 17.546875 22.230469 C 17.546875 22.230469 17.554688 22.207031 17.558594 22.1875 C 17.5625 22.171875 17.574219 22.140625 17.570312 22.121094 L 17.609375 22.121094 C 17.609375 22.121094 17.640625 22.1875 17.65625 22.261719 C 17.671875 22.335938 17.679688 22.371094 17.679688 22.371094 C 17.679688 22.371094 17.679688 22.402344 17.683594 22.453125 C 17.683594 22.503906 17.683594 22.535156 17.710938 22.570312 C 17.710938 22.570312 17.726562 22.582031 17.730469 22.585938 C 17.734375 22.589844 17.742188 22.601562 17.753906 22.617188 C 17.765625 22.628906 17.769531 22.636719 17.773438 22.640625 C 17.777344 22.644531 17.777344 22.652344 17.777344 22.65625 C 17.777344 22.664062 17.78125 22.671875 17.796875 22.683594 C 17.808594 22.691406 17.816406 22.6875 17.824219 22.699219 C 17.835938 22.707031 17.835938 22.710938 17.835938 22.722656 C 17.835938 22.738281 17.835938 22.769531 17.832031 22.796875 C 17.824219 22.820312 17.792969 22.820312 17.78125 22.8125 C 17.78125 22.8125 17.753906 22.792969 17.722656 22.765625 C 17.695312 22.738281 17.644531 22.691406 17.59375 22.714844 C 17.59375 22.714844 17.570312 22.730469 17.558594 22.769531 C 17.546875 22.808594 17.566406 22.816406 17.589844 22.824219 C 17.609375 22.835938 17.664062 22.851562 17.675781 22.851562 C 17.6875 22.855469 17.714844 22.859375 17.726562 22.878906 C 17.738281 22.902344 17.746094 22.9375 17.746094 22.9375 C 17.746094 22.9375 17.753906 22.96875 17.78125 22.988281 C 17.808594 23.007812 17.828125 23.027344 17.828125 23.027344 C 17.828125 23.027344 17.84375 23.046875 17.84375 23.058594 C 17.84375 23.074219 17.859375 23.121094 17.878906 23.140625 C 17.898438 23.15625 17.914062 23.179688 17.921875 23.1875 C 17.929688 23.191406 17.941406 23.214844 17.949219 23.226562 C 17.953125 23.234375 17.96875 23.265625 18.003906 23.265625 C 18.039062 23.265625 18.089844 23.273438 18.148438 23.28125 C 18.207031 23.285156 18.328125 23.296875 18.367188 23.304688 C 18.40625 23.3125 18.433594 23.320312 18.476562 23.304688 C 18.519531 23.289062 18.550781 23.277344 18.550781 23.277344 C 18.550781 23.277344 18.558594 23.257812 18.550781 23.25 C 18.550781 23.238281 18.5625 23.234375 18.574219 23.230469 C 18.585938 23.226562 18.628906 23.199219 18.644531 23.238281 C 18.660156 23.28125 18.671875 23.292969 18.683594 23.285156 C 18.695312 23.28125 18.695312 23.265625 18.699219 23.253906 C 18.707031 23.246094 18.710938 23.238281 18.722656 23.242188 C 18.738281 23.242188 18.773438 23.253906 18.773438 23.234375 C 18.773438 23.21875 18.765625 23.1875 18.769531 23.179688 C 18.769531 23.171875 18.78125 23.148438 18.8125 23.148438 C 18.84375 23.148438 18.855469 23.140625 18.855469 23.128906 C 18.855469 23.113281 18.832031 23.121094 18.832031 23.121094 Z M 14.675781 22.933594 C 14.667969 22.964844 14.660156 22.972656 14.65625 22.972656 C 14.65625 22.972656 14.613281 22.964844 14.601562 22.925781 C 14.59375 22.882812 14.617188 22.871094 14.617188 22.871094 L 14.667969 22.886719 C 14.667969 22.886719 14.679688 22.902344 14.675781 22.933594 Z M 15.34375 20.96875 C 15.285156 20.964844 15.269531 20.921875 15.246094 20.90625 C 15.222656 20.890625 15.171875 20.882812 15.128906 20.90625 C 15.082031 20.929688 15.03125 20.917969 15.023438 20.898438 C 15.019531 20.882812 15.007812 20.800781 15.042969 20.785156 C 15.078125 20.769531 15.097656 20.785156 15.128906 20.761719 C 15.164062 20.734375 15.15625 20.707031 15.15625 20.707031 C 15.15625 20.707031 15.199219 20.695312 15.222656 20.75 C 15.222656 20.75 15.226562 20.761719 15.238281 20.761719 C 15.246094 20.761719 15.273438 20.734375 15.277344 20.730469 C 15.285156 20.722656 15.316406 20.714844 15.320312 20.730469 C 15.324219 20.742188 15.320312 20.773438 15.304688 20.789062 C 15.292969 20.808594 15.304688 20.816406 15.316406 20.824219 C 15.332031 20.828125 15.382812 20.839844 15.398438 20.847656 C 15.410156 20.859375 15.429688 20.890625 15.425781 20.914062 C 15.425781 20.9375 15.40625 20.976562 15.347656 20.96875 Z M 15.863281 20.8125 C 15.847656 20.835938 15.789062 20.835938 15.769531 20.835938 C 15.746094 20.835938 15.730469 20.828125 15.695312 20.851562 C 15.660156 20.875 15.726562 20.902344 15.742188 20.917969 C 15.761719 20.929688 15.761719 20.964844 15.761719 20.964844 C 15.761719 20.964844 15.761719 21.066406 15.761719 21.09375 C 15.761719 21.121094 15.761719 21.183594 15.761719 21.183594 C 15.753906 21.199219 15.714844 21.210938 15.714844 21.210938 C 15.640625 21.222656 15.605469 21.1875 15.597656 21.171875 C 15.59375 21.15625 15.574219 21.136719 15.566406 21.125 C 15.558594 21.109375 15.59375 21.09375 15.59375 21.09375 C 15.625 21.070312 15.617188 21.050781 15.613281 21.015625 C 15.605469 20.988281 15.578125 20.871094 15.578125 20.855469 C 15.578125 20.84375 15.59375 20.816406 15.59375 20.816406 C 15.628906 20.773438 15.671875 20.789062 15.675781 20.789062 C 15.695312 20.777344 15.730469 20.761719 15.730469 20.761719 C 15.730469 20.761719 15.738281 20.761719 15.75 20.761719 C 15.761719 20.761719 15.808594 20.761719 15.835938 20.761719 C 15.863281 20.761719 15.878906 20.789062 15.863281 20.816406 Z M 17.402344 19.757812 C 17.363281 19.765625 17.328125 19.765625 17.3125 19.765625 C 17.296875 19.765625 17.285156 19.71875 17.285156 19.71875 C 17.359375 19.703125 17.351562 19.636719 17.351562 19.636719 C 17.378906 19.636719 17.40625 19.636719 17.40625 19.636719 C 17.449219 19.636719 17.484375 19.652344 17.496094 19.667969 C 17.507812 19.683594 17.523438 19.722656 17.523438 19.722656 C 17.492188 19.746094 17.441406 19.75 17.402344 19.757812 Z M 17.402344 19.757812 " fill-opacity="1" fill-rule="nonzero"/><path fill="#282828" d="M 15.347656 23.535156 C 15.347656 23.535156 15.347656 23.566406 15.34375 23.574219 C 15.339844 23.582031 15.332031 23.605469 15.289062 23.613281 C 15.246094 23.625 15.171875 23.628906 15.15625 23.695312 C 15.144531 23.761719 15.15625 23.777344 15.15625 23.824219 C 15.15625 23.871094 15.171875 23.953125 15.191406 23.996094 C 15.214844 24.042969 15.238281 24.085938 15.316406 24.082031 C 15.390625 24.082031 15.390625 24.011719 15.390625 24.011719 C 15.390625 24.011719 15.398438 23.933594 15.390625 23.898438 C 15.378906 23.863281 15.363281 23.824219 15.382812 23.777344 C 15.398438 23.734375 15.417969 23.691406 15.417969 23.644531 C 15.417969 23.597656 15.414062 23.554688 15.378906 23.535156 C 15.378906 23.535156 15.359375 23.519531 15.347656 23.535156 Z M 15.347656 23.535156 " fill-opacity="1" fill-rule="nonzero"/><path fill="#282828" d="M 15.667969 25.035156 C 15.667969 25.035156 15.8125 25.066406 15.792969 25.046875 C 15.773438 25.03125 15.714844 24.984375 15.839844 25.03125 C 15.964844 25.078125 15.996094 25.082031 16.007812 25.066406 C 16.015625 25.054688 16.023438 25.054688 16.054688 25.054688 C 16.089844 25.054688 16.101562 25.042969 16.101562 25.019531 C 16.101562 24.996094 16.113281 25 16.121094 25.003906 C 16.132812 25.007812 16.164062 25.035156 16.183594 25.058594 C 16.199219 25.082031 16.257812 25.085938 16.28125 25.085938 C 16.308594 25.085938 16.359375 25.09375 16.40625 25.109375 C 16.40625 25.109375 16.433594 25.117188 16.441406 25.113281 C 16.441406 25.113281 16.441406 25.121094 16.449219 25.121094 C 16.457031 25.125 16.488281 25.105469 16.496094 25.097656 C 16.5 25.089844 16.519531 25.058594 16.527344 25.054688 C 16.535156 25.054688 16.539062 25.050781 16.546875 25.054688 C 16.554688 25.0625 16.589844 25.082031 16.625 25.101562 C 16.664062 25.117188 16.703125 25.109375 16.714844 25.109375 C 16.722656 25.109375 16.792969 25.097656 16.816406 25.089844 C 16.84375 25.082031 16.886719 25.070312 16.910156 25.0625 C 16.933594 25.050781 16.980469 25.019531 17 25.027344 L 17 25.046875 C 17 25.046875 16.992188 25.058594 16.984375 25.074219 L 16.984375 25.09375 C 16.984375 25.09375 17.050781 25.09375 17.0625 25.09375 C 17.074219 25.09375 17.132812 25.066406 17.132812 25.066406 C 17.132812 25.066406 17.207031 25.035156 17.226562 25.019531 C 17.246094 25.007812 17.285156 25.011719 17.296875 25.015625 C 17.308594 25.019531 17.378906 25.027344 17.402344 25.019531 C 17.421875 25.011719 17.515625 24.953125 17.554688 24.96875 C 17.554688 24.96875 17.554688 24.972656 17.5625 24.972656 C 17.566406 24.972656 17.746094 24.929688 17.746094 24.929688 C 17.746094 24.929688 17.351562 25.136719 17.074219 25.15625 C 16.796875 25.179688 16.605469 25.222656 16.054688 25.15625 C 16.054688 25.15625 15.628906 25.070312 15.667969 25.042969 Z M 15.667969 25.035156 " fill-opacity="1" fill-rule="nonzero"/><path fill="#282828" d="M 16.839844 22.582031 C 16.839844 22.582031 16.820312 22.609375 16.8125 22.621094 C 16.804688 22.632812 16.808594 22.644531 16.808594 22.65625 C 16.808594 22.671875 16.804688 22.691406 16.808594 22.703125 C 16.8125 22.714844 16.808594 22.742188 16.839844 22.75 C 16.871094 22.757812 16.878906 22.75 16.890625 22.742188 C 16.898438 22.734375 16.90625 22.699219 16.902344 22.683594 C 16.898438 22.671875 16.898438 22.652344 16.894531 22.636719 C 16.890625 22.625 16.863281 22.605469 16.863281 22.605469 C 16.859375 22.605469 16.839844 22.589844 16.839844 22.589844 Z M 16.839844 22.582031 " fill-opacity="1" fill-rule="nonzero"/><path fill="#282828" d="M 18.648438 24.289062 C 18.648438 24.289062 18.597656 24.265625 18.59375 24.238281 C 18.589844 24.207031 18.582031 24.144531 18.519531 24.15625 C 18.457031 24.164062 18.433594 24.210938 18.417969 24.222656 C 18.40625 24.238281 18.378906 24.261719 18.316406 24.28125 C 18.316406 24.28125 18.21875 24.324219 18.175781 24.324219 C 18.175781 24.324219 18.15625 24.332031 18.128906 24.316406 C 18.128906 24.316406 18.164062 24.265625 18.175781 24.21875 C 18.183594 24.175781 18.195312 24.105469 18.191406 24.070312 C 18.191406 24.035156 18.1875 23.949219 18.21875 23.902344 C 18.246094 23.851562 18.332031 23.8125 18.332031 23.8125 C 18.332031 23.8125 18.480469 23.722656 18.566406 23.613281 C 18.652344 23.5 18.710938 23.453125 18.753906 23.449219 C 18.800781 23.441406 18.820312 23.4375 18.820312 23.386719 C 18.824219 23.339844 18.816406 23.285156 18.875 23.265625 C 18.929688 23.242188 18.949219 23.21875 18.972656 23.234375 C 18.996094 23.253906 18.996094 23.3125 18.996094 23.355469 C 18.992188 23.402344 19.011719 23.484375 19.042969 23.488281 C 19.074219 23.488281 19.089844 23.488281 19.089844 23.488281 C 19.089844 23.488281 19.082031 23.335938 19.074219 23.316406 C 19.074219 23.316406 19.074219 23.304688 19.089844 23.296875 C 19.109375 23.289062 19.113281 23.277344 19.113281 23.277344 C 19.113281 23.277344 19.128906 23.253906 19.128906 23.214844 C 19.132812 23.171875 19.128906 23.152344 19.148438 23.148438 C 19.164062 23.144531 19.183594 23.160156 19.195312 23.183594 C 19.203125 23.207031 19.214844 23.207031 19.214844 23.207031 C 19.214844 23.207031 19.230469 23.164062 19.253906 23.15625 C 19.28125 23.148438 19.28125 23.132812 19.308594 23.140625 C 19.332031 23.148438 19.308594 23.179688 19.277344 23.296875 C 19.25 23.414062 19.136719 23.730469 18.859375 24.066406 L 18.644531 24.292969 Z M 18.648438 24.289062 " fill-opacity="1" fill-rule="nonzero"/><path fill="#282828" d="M 18.0625 21.917969 C 18.0625 21.917969 18.046875 21.960938 18.050781 21.976562 C 18.050781 21.996094 18.074219 22.023438 18.09375 22.027344 C 18.113281 22.027344 18.136719 22.027344 18.144531 22.019531 C 18.152344 22.015625 18.152344 21.960938 18.132812 21.949219 C 18.113281 21.933594 18.085938 21.921875 18.082031 21.917969 C 18.078125 21.914062 18.066406 21.914062 18.0625 21.917969 Z M 18.0625 21.917969 " fill-opacity="1" fill-rule="nonzero"/><path fill="#282828" d="M 18.449219 22.542969 C 18.449219 22.542969 18.4375 22.550781 18.429688 22.554688 C 18.421875 22.558594 18.40625 22.566406 18.40625 22.570312 C 18.40625 22.570312 18.410156 22.589844 18.390625 22.609375 C 18.375 22.628906 18.332031 22.65625 18.3125 22.671875 C 18.296875 22.691406 18.285156 22.691406 18.269531 22.742188 C 18.269531 22.742188 18.265625 22.785156 18.246094 22.808594 C 18.246094 22.808594 18.195312 22.828125 18.175781 22.855469 C 18.15625 22.882812 18.164062 22.890625 18.164062 22.925781 C 18.164062 22.960938 18.15625 23.03125 18.257812 23.050781 C 18.359375 23.066406 18.410156 23.042969 18.441406 23.019531 C 18.472656 23 18.480469 22.980469 18.484375 22.945312 C 18.488281 22.910156 18.488281 22.867188 18.523438 22.835938 C 18.523438 22.835938 18.550781 22.816406 18.539062 22.777344 C 18.527344 22.734375 18.488281 22.707031 18.523438 22.652344 C 18.523438 22.652344 18.53125 22.636719 18.550781 22.628906 C 18.566406 22.625 18.578125 22.597656 18.566406 22.578125 C 18.558594 22.554688 18.546875 22.535156 18.511719 22.535156 C 18.480469 22.535156 18.453125 22.542969 18.445312 22.546875 Z M 18.449219 22.542969 " fill-opacity="1" fill-rule="nonzero"/><path fill="#282828" d="M 18.710938 22.710938 C 18.710938 22.710938 18.691406 22.734375 18.683594 22.761719 C 18.683594 22.761719 18.628906 22.785156 18.617188 22.785156 C 18.605469 22.785156 18.574219 22.785156 18.570312 22.785156 C 18.566406 22.789062 18.558594 22.816406 18.558594 22.84375 C 18.5625 22.871094 18.542969 22.886719 18.53125 22.894531 C 18.523438 22.902344 18.507812 22.910156 18.515625 22.933594 C 18.515625 22.933594 18.515625 22.941406 18.535156 22.949219 C 18.554688 22.957031 18.554688 22.964844 18.550781 22.984375 C 18.550781 23 18.558594 23.035156 18.558594 23.035156 C 18.558594 23.035156 18.59375 23.03125 18.605469 23.03125 C 18.613281 23.027344 18.625 23.03125 18.628906 23.03125 C 18.632812 23.035156 18.648438 23.046875 18.648438 23.046875 L 18.699219 23.046875 C 18.699219 23.046875 18.699219 23.007812 18.699219 23.003906 C 18.699219 23.003906 18.640625 22.957031 18.640625 22.941406 C 18.640625 22.925781 18.636719 22.898438 18.667969 22.875 C 18.667969 22.875 18.6875 22.859375 18.71875 22.851562 C 18.75 22.839844 18.753906 22.828125 18.753906 22.816406 C 18.757812 22.804688 18.753906 22.726562 18.753906 22.726562 C 18.753906 22.726562 18.75 22.691406 18.722656 22.699219 C 18.722656 22.699219 18.714844 22.703125 18.710938 22.707031 Z M 18.710938 22.710938 " fill-opacity="1" fill-rule="nonzero"/><path fill="#282828" d="M 19.421875 22.578125 C 19.421875 22.578125 19.371094 22.5625 19.335938 22.617188 C 19.335938 22.617188 19.320312 22.644531 19.316406 22.6875 C 19.316406 22.730469 19.308594 22.765625 19.296875 22.773438 C 19.28125 22.785156 19.269531 22.773438 19.257812 22.761719 C 19.246094 22.75 19.1875 22.710938 19.167969 22.703125 C 19.148438 22.695312 19.113281 22.679688 19.101562 22.664062 C 19.085938 22.644531 19.066406 22.636719 19.03125 22.640625 C 19.03125 22.640625 19.019531 22.644531 19.015625 22.679688 C 19.015625 22.679688 19.015625 22.710938 18.988281 22.71875 L 18.921875 22.734375 C 18.921875 22.734375 18.90625 22.710938 18.902344 22.691406 C 18.894531 22.675781 18.878906 22.640625 18.847656 22.652344 C 18.847656 22.652344 18.835938 22.65625 18.835938 22.691406 C 18.835938 22.722656 18.839844 22.765625 18.839844 22.765625 C 18.839844 22.765625 18.859375 22.78125 18.867188 22.785156 C 18.875 22.792969 18.890625 22.792969 18.902344 22.792969 C 18.914062 22.789062 18.941406 22.792969 18.949219 22.8125 C 18.957031 22.835938 18.96875 22.871094 19.011719 22.878906 C 19.054688 22.886719 19.0625 22.890625 19.066406 22.917969 C 19.066406 22.941406 19.066406 22.957031 19.058594 22.976562 C 19.050781 22.992188 19.046875 23.03125 19.058594 23.042969 C 19.070312 23.050781 19.101562 23.046875 19.109375 23.050781 C 19.121094 23.050781 19.152344 23.058594 19.160156 23.050781 C 19.171875 23.042969 19.195312 23.027344 19.195312 23.027344 C 19.195312 23.027344 19.207031 22.984375 19.203125 22.960938 C 19.203125 22.9375 19.230469 22.945312 19.234375 22.953125 C 19.238281 22.960938 19.257812 22.996094 19.269531 23 C 19.28125 23 19.289062 23.003906 19.292969 22.984375 C 19.296875 22.964844 19.296875 22.929688 19.292969 22.914062 C 19.289062 22.898438 19.277344 22.871094 19.289062 22.84375 C 19.300781 22.816406 19.316406 22.828125 19.335938 22.820312 C 19.351562 22.8125 19.371094 22.8125 19.371094 22.769531 C 19.375 22.730469 19.398438 22.710938 19.398438 22.710938 L 19.441406 22.605469 L 19.417969 22.574219 Z M 19.421875 22.578125 " fill-opacity="1" fill-rule="nonzero"/><path fill="#282828" d="M 18.476562 21.894531 C 18.476562 21.894531 18.472656 21.980469 18.476562 22.027344 C 18.480469 22.074219 18.503906 22.128906 18.542969 22.15625 C 18.578125 22.183594 18.5625 22.230469 18.550781 22.253906 C 18.542969 22.28125 18.5 22.300781 18.480469 22.363281 C 18.464844 22.425781 18.484375 22.4375 18.484375 22.4375 C 18.484375 22.4375 18.53125 22.4375 18.546875 22.414062 C 18.558594 22.390625 18.546875 22.347656 18.578125 22.335938 C 18.613281 22.324219 18.625 22.3125 18.621094 22.289062 C 18.617188 22.261719 18.632812 22.289062 18.632812 22.296875 C 18.636719 22.300781 18.625 22.398438 18.652344 22.4375 C 18.683594 22.472656 18.730469 22.488281 18.738281 22.5 C 18.746094 22.511719 18.753906 22.519531 18.753906 22.519531 L 18.820312 22.449219 C 18.820312 22.449219 18.847656 22.417969 18.832031 22.394531 C 18.8125 22.375 18.808594 22.371094 18.800781 22.359375 C 18.789062 22.347656 18.765625 22.34375 18.769531 22.292969 C 18.773438 22.242188 18.769531 22.210938 18.738281 22.1875 C 18.710938 22.160156 18.652344 22.164062 18.652344 22.164062 C 18.652344 22.164062 18.605469 22.054688 18.605469 21.96875 C 18.601562 21.882812 18.503906 21.878906 18.476562 21.894531 Z M 18.476562 21.894531 " fill-opacity="1" fill-rule="nonzero"/></svg>